<?xml version="1.0" encoding="UTF-8"?>
<svg xmlns="http://www.w3.org/2000/svg" viewBox="0 0 388 342" role="img" aria-label="SLATE Concept Studios">
  <title>SLATE Concept Studios</title>
  <path fill="#FFFFFF" d="M0 0 C0.92155113 -0.00256327 1.84310225 -0.00512655 2.79257917 -0.0077675 C5.8634875 -0.01268717 8.93389813 0.00375761 12.00476074 0.02018738 C14.21280913 0.02103404 16.42085836 0.02055774 18.62890625 0.01885986 C24.61178706 0.01800003 30.594487 0.03562414 36.57732582 0.05658174 C42.83401189 0.07535032 49.09070223 0.07709913 55.34741211 0.08065796 C65.84520379 0.08891934 76.34293962 0.10765108 86.84069824 0.13444519 C97.65059072 0.16200719 108.46046519 0.18323027 119.27038574 0.19596863 C119.93737096 0.1967568 120.60435619 0.19754497 121.29155308 0.19835702 C124.63781986 0.2022723 127.98408675 0.20605661 131.33035374 0.20979273 C159.0649678 0.24114053 186.79950804 0.29390007 214.53405762 0.36076355 C214.54613983 1.7965337 214.55474488 3.23233339 214.56188965 4.6681366 C214.56705597 5.46769272 214.57222229 6.26724884 214.57754517 7.09103394 C214.35382995 18.76731961 208.45982636 31.17316559 200.49890137 39.5521698 C189.78041219 49.41829403 177.46509049 53.53390088 163.03630066 53.48101807 C161.75582414 53.4822997 161.75582414 53.4822997 160.4494794 53.48360723 C157.59052511 53.48525368 154.73162955 53.47975432 151.87268066 53.47428894 C149.82270814 53.47400686 147.77273552 53.47416521 145.72276306 53.47473145 C140.15711211 53.47501862 134.59148266 53.46913481 129.02583671 53.46215749 C123.20955244 53.45591063 117.39326769 53.45531909 111.57698059 53.45413208 C100.56277651 53.4510227 89.54858235 53.4428146 78.53438264 53.43278259 C65.99520792 53.42160926 53.45603272 53.41610792 40.91685426 53.41108716 C15.12258322 53.40063168 -10.67167903 53.38303983 -36.46594238 53.36076355 C-36.5656809 49.3773605 -36.63781436 45.39445246 -36.68566895 41.41007996 C-36.71540284 39.39728728 -36.76625967 37.38484221 -36.81750488 35.3724823 C-36.92044023 25.13041535 -35.17580328 18.69053452 -28.22766113 11.02482605 C-20.05358836 3.30386152 -11.09125511 -0.11425753 0 0 Z" transform="translate(105.4659423828125,241.6392364501953)"/>
  <path fill="#FFFFFF" d="M0 0 C0.86029784 -0.00170885 1.72059568 -0.0034177 2.60696316 -0.00517833 C5.47048386 -0.00845511 8.33376675 0.00250045 11.19726562 0.01345825 C13.2575327 0.01402276 15.31780018 0.01370504 17.37806702 0.01257324 C22.95802926 0.01200027 28.53790522 0.02374571 34.11784744 0.03772116 C39.95413015 0.05023767 45.79041492 0.05139974 51.62670898 0.05377197 C62.6727018 0.05998402 73.71865495 0.07639116 84.76463032 0.09647095 C97.34256373 0.11883847 109.92049906 0.12982553 122.49844742 0.13986182 C148.36682546 0.1607576 174.23516832 0.19592827 200.10351562 0.24050903 C200.19103061 4.76121924 200.24408172 9.28170973 200.29101562 13.80300903 C200.31615234 15.07982544 200.34128906 16.35664185 200.3671875 17.67214966 C200.41891037 24.30991795 200.43506893 29.42454556 197.10351562 35.24050903 C196.52601563 36.25113403 195.94851563 37.26175903 195.35351562 38.30300903 C189.31935915 46.18093554 181.87106257 50.43095389 172.10351562 52.24050903 C168.95696055 52.50094571 165.8314773 52.50279207 162.67553711 52.48101807 C161.75806953 52.48272692 160.84060196 52.48443577 159.89533234 52.4861964 C156.8383438 52.48947589 153.7815775 52.47851303 150.72460938 52.46755981 C148.52641302 52.46699537 146.32821628 52.46731291 144.13002014 52.46844482 C138.1740391 52.46901803 132.21813881 52.45726883 126.26217651 52.44329691 C120.03351248 52.43078425 113.80484654 52.42961863 107.57617188 52.42724609 C97.12547436 52.42173858 86.67480444 52.40925087 76.22412109 52.39138794 C65.46272936 52.37301312 54.70134567 52.35886447 43.93994141 52.35037231 C42.94394407 52.34958414 42.94394407 52.34958414 41.92782557 52.34878005 C38.5965428 52.34616986 35.26525998 52.34364699 31.93397713 52.34115624 C4.32380271 52.3202579 -23.28633875 52.28508502 -50.89648438 52.24050903 C-51.02158792 37.32904411 -45.53399768 25.42623807 -35.49487305 14.53201294 C-25.79619913 4.69240289 -13.71471438 -0.10114828 0 0 Z" transform="translate(119.896484375,47.759490966796875)"/>
  <path fill="#FFFFFF" d="M0 0 C26.65179608 -0.0701521 53.30357827 -0.12301859 79.95544815 -0.15543652 C92.33100729 -0.17089033 104.70650899 -0.19195148 117.08203125 -0.22631836 C127.87140433 -0.25626615 138.6607358 -0.2755858 149.4501493 -0.28226548 C155.16044502 -0.28616861 160.87062172 -0.29531062 166.58087921 -0.31719017 C171.96196705 -0.33764029 177.34288746 -0.3438166 182.72401047 -0.33932304 C184.69274939 -0.34014444 186.66149426 -0.34605902 188.63019943 -0.35761642 C207.37395874 -0.46220165 223.58264913 2.00453928 237.7421875 15.50390625 C245.78916685 24.40013428 251.07436805 34.60928248 251.01953125 46.6953125 C251.01671143 47.50242676 251.0138916 48.30954102 251.01098633 49.14111328 C251.00736084 49.7545459 251.00373535 50.36797852 251 51 C223.69629956 51.09352999 196.3926232 51.16402174 169.08879471 51.20724869 C156.41054166 51.2278551 143.73238829 51.25593909 131.05419922 51.30175781 C120.00113728 51.34168424 108.94814753 51.36744677 97.89501548 51.37635398 C92.04495284 51.38155885 86.19509672 51.3937524 80.3451004 51.42292023 C74.83265601 51.45018093 69.32050215 51.45842344 63.80799675 51.45243073 C61.79087429 51.4535262 59.77374156 51.4614162 57.75667763 51.4768219 C40.2078179 51.60421809 27.51839965 48.99778764 14.25 36.6875 C6.37885678 28.33595837 -0.20514358 15.89681206 -0.05517578 4.27563477 C-0.04720978 3.472715 -0.03924377 2.66979523 -0.03103638 1.84254456 C-0.01567337 0.930485 -0.01567337 0.930485 0 0 Z" transform="translate(69,144)"/>
</svg>
